<?xml version="1.0" encoding="UTF-8" standalone="no"?><!DOCTYPE svg PUBLIC "-//W3C//DTD SVG 1.1//EN" "http://www.w3.org/Graphics/SVG/1.1/DTD/svg11.dtd"><svg width="100%" height="100%" viewBox="0 0 245 30" version="1.1" xmlns="http://www.w3.org/2000/svg" xmlns:xlink="http://www.w3.org/1999/xlink" xml:space="preserve" xmlns:serif="http://www.serif.com/" style="fill-rule:evenodd;clip-rule:evenodd;stroke-linejoin:round;stroke-miterlimit:1.41421;"><rect id="AdvertentiePlanet" x="0" y="0" width="244.683" height="30" style="fill:none;"/><clipPath id="_clip1"><rect x="0" y="0" width="244.683" height="30"/></clipPath><g clip-path="url(#_clip1)"><g><g><path d="M64.553,22.304c-0.683,-4.422 -2.835,-10.031 -4.042,-12.143c-0.583,-1.025 -1.085,-1.528 -1.85,-1.528l-0.603,0c-2.111,2.574 -4.826,10.896 -4.826,12.787c0,0.623 0.242,0.884 0.825,0.884l0.703,0c0.202,-1.126 0.563,-2.614 0.825,-3.619l6.394,0c0.161,0.664 0.463,1.709 0.644,2.654c0.12,0.624 0.482,0.965 1.267,0.965l0.663,0Zm-3.036,-5.084l-5.51,0c0.704,-2.534 1.468,-4.645 2.755,-6.938c1.186,2.152 2.031,4.364 2.755,6.938Z" style="fill:#0084de;fill-rule:nonzero;"/><path d="M75.752,16.615l0,-7.298c0,-1.005 -0.462,-1.488 -1.365,-1.488l-0.482,0l0,5.588c-0.744,-1.467 -1.931,-2.069 -3.239,-2.069c-2.977,0 -4.704,2.049 -4.704,5.73c0,2.997 2.25,5.428 4.925,5.428c3.359,0 4.865,-1.768 4.865,-5.891Zm-1.867,0.503c0,2.635 -0.885,3.681 -2.837,3.681c-1.911,0 -3.238,-1.73 -3.238,-3.882c0,-2.434 1.046,-3.862 2.916,-3.862c2.575,0 3.159,2.112 3.159,4.063Z" style="fill:#0084de;fill-rule:nonzero;"/><path d="M87.075,13.801c0.08,-0.302 0.221,-0.885 0.221,-1.388c0,-0.502 -0.262,-0.864 -0.784,-0.864l-0.644,0c-0.322,2.01 -1.649,6.473 -3.237,8.886c-1.669,-2.573 -2.494,-5.388 -2.976,-7.841c-0.101,-0.542 -0.382,-1.045 -1.106,-1.045l-0.905,0c0.543,3.599 1.93,7.398 3.981,10.434c0.282,0.402 0.583,0.523 0.925,0.523l0.503,0c1.689,-1.93 3.418,-6.233 4.022,-8.705Z" style="fill:#0084de;fill-rule:nonzero;"/><path d="M97.932,15.087c0,-2.153 -1.968,-3.739 -4.061,-3.739c-2.856,0 -5.026,2.31 -5.026,5.79c0,3.097 2.089,5.368 5.047,5.368c2.413,0 3.618,-0.864 3.618,-1.989l0,-0.805l-0.1,0c-0.603,0.584 -1.607,1.107 -3.257,1.107c-2.012,0 -3.259,-1.268 -3.44,-3.059l2.656,0c3.679,0 4.563,-0.783 4.563,-2.673Zm-1.767,0.101c0,0.805 -0.443,1.046 -3.038,1.086l-2.434,0.041l0.02,-0.443c0.06,-1.389 1.187,-2.878 2.957,-2.878c1.69,0 2.495,1.027 2.495,2.194Z" style="fill:#0084de;fill-rule:nonzero;"/><path d="M106.096,13.819l0,-0.885c0,-0.722 -0.543,-1.365 -2.011,-1.365c-2.091,0 -3.537,1.586 -3.537,4.562l0,4.947c0,0.704 0.382,1.226 1.045,1.226l0.783,0l0,-6.032c0,-2.292 0.543,-2.996 1.97,-2.996c0.724,0 1.308,0.241 1.649,0.543l0.101,0Z" style="fill:#0084de;fill-rule:nonzero;"/><path d="M109.756,9.357l-0.221,0c-0.261,0 -0.864,0.382 -1.125,0.764c-0.301,0.443 -0.462,1.046 -0.462,1.669l0,6.997c0,2.474 1.045,3.719 3.436,3.719c1.247,0 1.951,-0.482 1.951,-1.386l0,-0.643l-0.101,0c-0.382,0.241 -1.025,0.302 -1.689,0.302c-1.166,0 -1.769,-0.644 -1.769,-2.173l0,-5.33l2.272,0c0.965,0 1.408,-0.442 1.408,-1.105l0,-0.602l-3.7,0l0,-2.212Z" style="fill:#0084de;fill-rule:nonzero;"/><path d="M124.053,15.087c0,-2.153 -1.969,-3.739 -4.061,-3.739c-2.856,0 -5.026,2.31 -5.026,5.79c0,3.097 2.089,5.368 5.046,5.368c2.414,0 3.619,-0.864 3.619,-1.989l0,-0.805l-0.1,0c-0.603,0.584 -1.607,1.107 -3.257,1.107c-2.012,0 -3.259,-1.268 -3.44,-3.059l2.655,0c3.68,0 4.564,-0.783 4.564,-2.673Zm-1.767,0.101c0,0.805 -0.443,1.046 -3.038,1.086l-2.434,0.041l0.02,-0.443c0.06,-1.389 1.187,-2.878 2.957,-2.878c1.69,0 2.495,1.027 2.495,2.194Z" style="fill:#0084de;fill-rule:nonzero;"/><path d="M135.454,22.304l0,-6.193c0,-3.217 -1.626,-4.763 -4.322,-4.763c-2.756,0 -4.563,1.767 -4.563,4.783l0,4.927c0,0.844 0.462,1.246 1.124,1.246l0.683,0l0,-6.133c0,-2.191 0.925,-3.096 2.535,-3.096c1.911,0 2.736,0.864 2.736,3.096l0,4.947c0,0.804 0.401,1.186 1.144,1.186l0.663,0Z" style="fill:#0084de;fill-rule:nonzero;"/><path d="M140.28,9.357l-0.221,0c-0.261,0 -0.863,0.382 -1.124,0.764c-0.301,0.443 -0.462,1.046 -0.462,1.669l0,6.997c0,2.474 1.044,3.719 3.436,3.719c1.247,0 1.95,-0.482 1.95,-1.386l0,-0.643l-0.1,0c-0.382,0.241 -1.026,0.302 -1.689,0.302c-1.167,0 -1.77,-0.644 -1.77,-2.173l0,-5.33l2.272,0c0.966,0 1.408,-0.442 1.408,-1.105l0,-0.602l-3.7,0l0,-2.212Z" style="fill:#0084de;fill-rule:nonzero;"/><path d="M148.364,8.814c0,-0.683 -0.543,-1.267 -1.226,-1.267c-0.682,0 -1.245,0.584 -1.245,1.267c0,0.684 0.563,1.247 1.245,1.247c0.683,0 1.226,-0.563 1.226,-1.247Zm2.091,12.507l0,-0.603l-0.784,0c-1.006,0 -1.669,-0.422 -1.669,-1.769l0,-5.972c0,-0.945 -0.643,-1.428 -1.265,-1.428l-0.563,0l0,7.661c0,2.151 1.105,3.195 3.215,3.195c0.644,0 1.066,-0.402 1.066,-1.084Z" style="fill:#0084de;fill-rule:nonzero;"/><path d="M160.952,15.087c0,-2.153 -1.969,-3.739 -4.061,-3.739c-2.857,0 -5.026,2.31 -5.026,5.79c0,3.097 2.089,5.368 5.046,5.368c2.414,0 3.619,-0.864 3.619,-1.989l0,-0.805l-0.101,0c-0.602,0.584 -1.607,1.107 -3.256,1.107c-2.012,0 -3.259,-1.268 -3.44,-3.059l2.655,0c3.68,0 4.564,-0.783 4.564,-2.673Zm-1.767,0.101c0,0.805 -0.443,1.046 -3.038,1.086l-2.434,0.041l0.02,-0.443c0.06,-1.389 1.187,-2.878 2.957,-2.878c1.69,0 2.495,1.027 2.495,2.194Z" style="fill:#0084de;fill-rule:nonzero;"/><path d="M172.936,12.734c0,-2.675 -1.988,-4.201 -4.724,-4.201l-1.066,0c-1.087,0 -2.654,0.301 -3.477,0.622l0,11.943c0,0.824 0.482,1.206 1.164,1.206l0.683,0l0,-5.689c0.543,0.361 1.509,0.582 2.736,0.582c2.636,0 4.684,-1.888 4.684,-4.463Zm-1.847,0.201c0,1.63 -0.946,2.636 -2.817,2.636c-1.046,0 -2.012,-0.121 -2.756,-0.523l0,-4.607c0.423,-0.101 1.227,-0.202 1.69,-0.202l1.046,0c1.891,0 2.837,0.906 2.837,2.696Z" style="fill:#0084de;fill-rule:nonzero;"/><path d="M179.471,21.301l0,-0.603l-1.186,0c-1.005,0 -1.689,-0.382 -1.689,-1.729l0,-9.732c0,-0.946 -0.542,-1.408 -1.285,-1.408l-0.563,0l0,11.361c0,2.171 1.145,3.195 3.255,3.195c0.986,0 1.468,-0.341 1.468,-1.084Z" style="fill:#0084de;fill-rule:nonzero;"/><path d="M188.983,18.766l0,-3.377c0,-2.616 -1.446,-4.041 -4.182,-4.041c-2.414,0 -3.699,1.285 -3.699,2.27l0,0.886l0.101,0c0.622,-0.866 1.808,-1.47 3.417,-1.47c1.751,0 2.535,0.645 2.535,2.214l0,0.504l-1.448,0c-3.219,0 -5.007,1.264 -5.007,3.578c0,1.911 1.908,3.176 4.101,3.176c3.017,0 4.182,-1.567 4.182,-3.74Zm-1.808,-0.14c0,1.549 -0.664,2.193 -2.293,2.193c-1.388,0 -2.314,-0.745 -2.314,-1.69c0,-1.188 0.986,-1.852 3.139,-1.852l1.468,0l0,1.349Z" style="fill:#0084de;fill-rule:nonzero;"/><path d="M200.625,22.304l0,-6.193c0,-3.217 -1.626,-4.763 -4.322,-4.763c-2.756,0 -4.563,1.767 -4.563,4.783l0,4.927c0,0.844 0.462,1.246 1.124,1.246l0.683,0l0,-6.133c0,-2.191 0.926,-3.096 2.535,-3.096c1.911,0 2.736,0.864 2.736,3.096l0,4.947c0,0.804 0.402,1.186 1.145,1.186l0.662,0Z" style="fill:#0084de;fill-rule:nonzero;"/><path d="M212.228,15.087c0,-2.153 -1.968,-3.739 -4.061,-3.739c-2.856,0 -5.026,2.31 -5.026,5.79c0,3.097 2.089,5.368 5.047,5.368c2.413,0 3.618,-0.864 3.618,-1.989l0,-0.805l-0.1,0c-0.603,0.584 -1.607,1.107 -3.257,1.107c-2.012,0 -3.259,-1.268 -3.44,-3.059l2.656,0c3.679,0 4.563,-0.783 4.563,-2.673Zm-1.767,0.101c0,0.805 -0.443,1.046 -3.038,1.086l-2.434,0.041l0.02,-0.443c0.06,-1.389 1.187,-2.878 2.957,-2.878c1.69,0 2.495,1.027 2.495,2.194Z" style="fill:#0084de;fill-rule:nonzero;"/><path d="M216.752,9.357l-0.221,0c-0.261,0 -0.863,0.382 -1.124,0.764c-0.301,0.443 -0.462,1.046 -0.462,1.669l0,6.997c0,2.474 1.044,3.719 3.436,3.719c1.247,0 1.951,-0.482 1.951,-1.386l0,-0.643l-0.101,0c-0.382,0.241 -1.025,0.302 -1.689,0.302c-1.166,0 -1.77,-0.644 -1.77,-2.173l0,-5.33l2.273,0c0.965,0 1.407,-0.442 1.407,-1.105l0,-0.602l-3.7,0l0,-2.212Z" style="fill:#0084de;fill-rule:nonzero;"/><path d="M225.179,20.898c0,-0.824 -0.623,-1.426 -1.428,-1.426c-0.804,0 -1.448,0.602 -1.448,1.426c0,0.824 0.644,1.406 1.448,1.406c0.805,0 1.428,-0.582 1.428,-1.406Z" style="fill:#0084de;fill-rule:nonzero;"/><path d="M236.941,22.304l0,-6.193c0,-3.217 -1.626,-4.763 -4.322,-4.763c-2.756,0 -4.563,1.767 -4.563,4.783l0,4.927c0,0.844 0.462,1.246 1.124,1.246l0.683,0l0,-6.133c0,-2.191 0.925,-3.096 2.535,-3.096c1.911,0 2.736,0.864 2.736,3.096l0,4.947c0,0.804 0.401,1.186 1.144,1.186l0.663,0Z" style="fill:#0084de;fill-rule:nonzero;"/><path d="M244.683,21.301l0,-0.603l-1.187,0c-1.005,0 -1.689,-0.382 -1.689,-1.729l0,-9.732c0,-0.946 -0.542,-1.408 -1.285,-1.408l-0.562,0l0,11.361c0,2.171 1.144,3.195 3.255,3.195c0.985,0 1.468,-0.341 1.468,-1.084Z" style="fill:#0084de;fill-rule:nonzero;"/></g><path d="M37.31,5.886l2.638,1.892c-2.811,2.95 -9.153,6.83 -16.495,10.022c-12.899,5.608 -20.718,5.816 -21.215,4.671c-0.225,-0.518 0.788,-1.947 3.142,-3.871c-0.186,-0.87 -0.285,-1.743 -0.334,-2.614c-3.483,2.593 -5.706,5.265 -4.87,7.38l0,0.001c0.664,1.42 2.414,1.95 4.822,1.908c5.487,-0.096 14.157,-3.158 19.35,-5.417c7.843,-3.41 14.446,-7.511 17.436,-10.764l2.803,2.01l0.88,-8.91l-8.157,3.692Z" style="fill:#f80;fill-rule:nonzero;"/><path d="M10.485,19.92c-2.684,-6.409 0.276,-13.831 6.669,-16.61c1.56,-0.679 3.208,-1.033 4.86,-1.062c1.652,-0.029 3.31,0.268 4.894,0.892c3.114,1.226 5.569,3.576 6.942,6.622c0.685,-0.451 1.309,-0.885 1.862,-1.293c-1.644,-3.399 -4.448,-6.026 -7.981,-7.418c-3.728,-1.468 -7.801,-1.396 -11.473,0.2c-7.389,3.214 -10.869,11.7 -7.988,19.148c0.676,-0.125 1.418,-0.286 2.215,-0.479" style="fill:#0084de;fill-rule:nonzero;"/><path d="M34.097,19.672c-1.248,3.168 -3.655,5.66 -6.778,7.018c-3.121,1.357 -6.585,1.419 -9.755,0.17c-0.841,-0.331 -1.631,-0.75 -2.368,-1.236c-0.896,0.268 -1.806,0.517 -2.718,0.745c1.254,1.075 2.682,1.957 4.263,2.579c1.864,0.735 3.813,1.084 5.756,1.05c1.944,-0.034 3.881,-0.451 5.718,-1.25c3.672,-1.596 6.502,-4.528 7.971,-8.253c0.625,-1.587 0.953,-3.237 1.021,-4.891c-0.762,0.494 -1.56,0.989 -2.398,1.481c-0.147,0.875 -0.38,1.742 -0.712,2.587" style="fill:#0084de;fill-rule:nonzero;"/></g></g></svg>